<?xml version="1.0" encoding="UTF-8"?>
<svg width="48px" height="48px" viewBox="0 0 48 48" version="1.1" xmlns="http://www.w3.org/2000/svg" xmlns:xlink="http://www.w3.org/1999/xlink">
    <!-- Generator: Sketch 64 (93537) - https://sketch.com -->
    <title>画板</title>
    <desc>Created with Sketch.</desc>
    <defs>
        <path d="M24.2909167,23.2483871 C24.4780598,23.4354839 24.7587743,23.5290323 24.9459174,23.3419355 L29.3437789,20.3483871 L31.1216378,24.9322581 C31.2152094,25.0258065 31.3087809,25.2129032 31.4023524,25.2129032 C31.4023524,25.2129032 31.4959239,25.2129032 31.4959239,25.2129032 C31.5894955,25.2129032 31.683067,25.2129032 31.7766385,25.1193548 L33.835212,23.4354839 C33.9287835,23.3419355 34.022355,23.1548387 34.022355,22.9677419 L32.9930683,17.8225806 L38.7945027,13.6129032 C38.8880742,13.5193548 38.9816457,13.3322581 38.9816457,13.1451613 C38.9816457,13.0516129 38.9816457,12.9580645 38.8880742,12.8645161 C37.7652159,11.2741935 35.6130709,10.8064516 34.022355,11.9290323 L30.5602087,14.2677419 L25.413775,12.0225806 C25.2266319,11.9290323 25.1330604,11.9290323 24.9459174,12.0225806 L22.7937724,13.4258065 C22.7002008,13.5193548 22.6066293,13.6129032 22.6066293,13.8 C22.6066293,13.9870968 22.7002008,14.0806452 22.7937724,14.1741935 L26.5366333,16.8870968 L24.4780598,18.2903226 L21.296628,17.916129 C21.109485,17.916129 20.9223419,18.0096774 20.8287704,18.1032258 C20.7351989,18.2903226 20.7351989,18.4774194 20.8287704,18.6645161 L24.2909167,23.2483871 Z M23.8230591,13.8935484 L25.2266319,12.9580645 L29.530922,14.8290323 L27.2852054,16.4193548 L23.8230591,13.8935484 Z M24.5716313,19.2258065 C24.6652028,19.2258065 24.7587743,19.2258065 24.8523459,19.1322581 L34.4902127,12.6774194 C35.6130709,11.9290323 37.0166438,12.116129 37.8587875,13.0516129 L32.2444961,17.1677419 C32.0573531,17.2612903 32.0573531,17.4483871 32.0573531,17.6354839 L33.0866398,22.7806452 L31.7766385,23.9032258 L29.9987796,19.4129032 C29.9052081,19.3193548 29.8116365,19.2258065 29.718065,19.1322581 C29.718065,19.1322581 29.6244935,19.1322581 29.6244935,19.1322581 C29.530922,19.1322581 29.4373504,19.1322581 29.3437789,19.2258065 L24.8523459,22.3129032 L22.3259148,18.9451613 L24.5716313,19.2258065 Z M37.2037868,28.5806452 L38.9816457,28.5806452 L38.9816457,27.6451613 L37.0166438,27.6451613 L36.1745001,27.6451613 L16.5244804,27.6451613 L16.5244804,19.8806452 L19.2380545,17.1677419 C19.331626,17.0741935 19.4251976,16.7935484 19.331626,16.7 C19.2380545,16.5129032 19.0509115,16.4193548 18.8637684,16.4193548 L18.3959108,16.4193548 L18.3959108,12.6774194 L19.331626,12.6774194 L19.331626,11.7419355 L14.6530499,11.7419355 L14.6530499,8 L13.7173347,8 L13.7173347,11.7419355 L9.03875859,11.7419355 L9.03875859,12.6774194 L9.97447382,12.6774194 L9.97447382,16.4193548 L9.5066162,16.4193548 C9.31947316,16.4193548 9.13233012,16.5129032 9.03875859,16.7 C8.94518707,16.8870968 9.03875859,17.0741935 9.13233012,17.1677419 L11.8459043,19.8806452 L11.8459043,33.2580645 L10.4423314,33.2580645 C10.2551884,33.2580645 10.0680453,33.3516129 9.97447382,33.5387097 L9.03875859,36.3451613 C8.94518707,36.5322581 9.03875859,36.6258065 9.13233012,36.8129032 C9.22590164,36.9064516 9.31947316,37 9.5066162,37 L16.992338,37 L18.8637684,37 L38.5137881,37 C38.7945027,37 39.0752172,36.7193548 38.9816457,36.4387097 L37.2037868,28.5806452 Z M36.1745001,28.5806452 L36.1745001,28.5806452 L37.952359,36.0645161 L19.2380545,36.0645161 L18.3959108,33.5387097 C18.3023393,33.3516129 18.1151963,33.2580645 17.9280532,33.2580645 L16.5244804,33.2580645 L16.5244804,28.5806452 L36.1745001,28.5806452 Z M10.910189,12.6774194 L17.4601956,12.6774194 L17.4601956,16.4193548 L10.910189,16.4193548 L10.910189,12.6774194 Z M17.7409102,17.3548387 L15.8694797,19.2258065 L12.5009049,19.2258065 L10.6294745,17.3548387 L17.7409102,17.3548387 Z M16.992338,36.0645161 L10.1616169,36.0645161 L10.8166175,34.1935484 L12.3137619,34.1935484 C12.5944764,34.1935484 12.7816195,34.0064516 12.7816195,33.7258065 L12.7816195,20.1612903 L15.5887652,20.1612903 L15.5887652,33.7258065 C15.5887652,34.0064516 15.7759082,34.1935484 16.0566228,34.1935484 L17.5537671,34.1935484 L18.2087678,36.0645161 L16.992338,36.0645161 Z" id="path-1"></path>
    </defs>
    <g id="画板" stroke="none" stroke-width="1" fill="none" fill-rule="evenodd">
        <circle id="Oval-2" fill="#008BFF" cx="24" cy="24" r="24"></circle>
        <g id="px-obj:airport" transform="translate(0.000000, 1.000000)">
            <rect id="Container" x="0" y="0" width="48" height="44"></rect>
            <mask id="mask-2" fill="white">
                <use xlink:href="#path-1"></use>
            </mask>
            <use id="Mask" fill="#FFFFFF" fill-rule="nonzero" xlink:href="#path-1"></use>
        </g>
    </g>
</svg>