<?xml version="1.0" encoding="UTF-8"?>
<svg width="48px" height="48px" viewBox="0 0 48 48" version="1.1" xmlns="http://www.w3.org/2000/svg" xmlns:xlink="http://www.w3.org/1999/xlink">
    <!-- Generator: Sketch 64 (93537) - https://sketch.com -->
    <title>画板</title>
    <desc>Created with Sketch.</desc>
    <g id="画板" stroke="none" stroke-width="1" fill="none" fill-rule="evenodd">
        <circle id="Oval-2" fill="#008BFF" cx="24" cy="24" r="24"></circle>
        <g id="173测试" transform="translate(5.000000, 5.000000)" fill-rule="nonzero">
            <rect id="矩形" fill="#000000" opacity="0" x="0" y="0" width="37" height="37"></rect>
            <path d="M31.5905797,4 L6.40942029,4 C5.07971014,4 4,5.0718095 4,6.39178966 L4,30.6082103 C4,31.9281905 5.07971014,33 6.40942029,33 L31.5905797,33 C32.9202899,33 34,31.9281905 34,30.6082103 L34,6.39178966 C34,5.0718095 32.9166667,4 31.5905797,4 Z M6.40942029,5.72640456 L31.5905797,5.72640456 C31.9601449,5.72640456 32.2608696,6.02492869 32.2608696,6.39178966 L32.2608696,9.68274836 L5.73913043,9.68274836 L5.73913043,6.39178966 C5.73913043,6.02492869 6.03985507,5.72640456 6.40942029,5.72640456 Z M31.5905797,31.2699988 L6.40942029,31.2699988 C6.03985507,31.2699988 5.73913043,30.9714746 5.73913043,30.6046137 L5.73913043,11.1214188 L32.2608696,11.1214188 L32.2608696,30.6046137 C32.2608696,30.9714746 31.9601449,31.2699988 31.5905797,31.2699988 Z" id="形状" fill="#FFFFFF"></path>
            <path d="M27.2462794,26.3054552 L21.2254088,26.3054552 C20.7532532,26.3054552 20.3733988,26.6831974 20.3733988,27.1527276 C20.3733988,27.6222577 20.7532532,28 21.2254088,28 L27.2462794,28 C27.718435,28 28.0982894,27.6222577 28.0982894,27.1527276 C28.0982894,26.6831974 27.718435,26.3054552 27.2462794,26.3054552 Z M21.5094121,8.01849206 C21.5129621,8.04673447 21.5200622,8.07144658 21.5307123,8.099689 C21.5378124,8.12440111 21.5484625,8.15264352 21.5591127,8.17735564 C21.5697628,8.20206775 21.5804129,8.22677986 21.5946131,8.25149197 C21.6088133,8.27620409 21.6230134,8.3009162 21.6372136,8.32209801 C21.6514138,8.34681012 21.669164,8.36799193 21.6869142,8.38917374 C21.7046644,8.41035555 21.7224146,8.43153736 21.7437148,8.45271917 C21.7650151,8.47390098 21.7827653,8.49155249 21.8076156,8.509204 C21.8289158,8.52685551 21.8502161,8.54450702 21.8750664,8.55862823 C21.8999167,8.57274943 21.9212169,8.58687064 21.9460672,8.60099185 C21.9709175,8.61511305 21.9957678,8.62570396 22.0206181,8.63629486 C22.0454684,8.64688577 22.0738687,8.65747667 22.098719,8.66453728 C22.1235693,8.67159788 22.1519696,8.67865849 22.18037,8.68571909 C22.2087703,8.68924939 22.2371706,8.69630999 22.2620209,8.6998403 C22.2904213,8.7033706 22.3188216,8.7033706 22.3472219,8.7033706 C22.3756223,8.7033706 22.4040226,8.7033706 22.4324229,8.6998403 C22.4608233,8.69630999 22.4892236,8.69277969 22.5140739,8.68571909 C22.5424742,8.68218879 22.5673245,8.67159788 22.5957248,8.66453728 C22.6241252,8.65747667 22.6489755,8.64688577 22.6738258,8.63629486 C22.698676,8.62570396 22.7235263,8.61511305 22.7483766,8.60099185 C22.7732269,8.58687064 22.7980772,8.57274943 22.8193775,8.55862823 C22.8442278,8.54450702 22.865528,8.52685551 22.8868283,8.509204 C22.9081285,8.49155249 22.9294288,8.47390098 22.950729,8.45271917 C22.9720293,8.43506766 22.9897795,8.41388585 23.0075297,8.38917374 C23.0252799,8.36799193 23.0430301,8.34681012 23.0572303,8.32209801 C23.0714304,8.3009162 23.0856306,8.27620409 23.0998308,8.25149197 C23.1140309,8.22677986 23.124681,8.20206775 23.1353312,8.17735564 C23.1459813,8.15264352 23.1566314,8.12440111 23.1637315,8.099689 C23.1708316,8.07144658 23.1779317,8.04673447 23.1850318,8.01849206 C23.1921318,7.99024964 23.1956819,7.96200723 23.1992319,7.93729512 C23.202782,7.9090527 23.202782,7.88081029 23.202782,7.85256787 C23.202782,7.82432546 23.202782,7.79608305 23.1992319,7.76784063 C23.1956819,7.73959822 23.1921318,7.7113558 23.1850318,7.68664369 C23.1779317,7.65840128 23.1743816,7.63368917 23.1637315,7.60544675 C23.1566314,7.58073464 23.1459813,7.55249222 23.1353312,7.52778011 C23.124681,7.503068 23.1140309,7.47835589 23.0998308,7.45364378 C23.0856306,7.42893166 23.0714304,7.40421955 23.0572303,7.38303774 C23.0430301,7.35832563 23.0252799,7.33714382 23.0075297,7.31596201 C22.9897795,7.2947802 22.9720293,7.27359839 22.950729,7.25241658 C22.9294288,7.23476507 22.9116785,7.21358326 22.8868283,7.19593175 C22.865528,7.17828024 22.8442278,7.16062873 22.8193775,7.14650752 C22.7980772,7.13238632 22.7732269,7.11826511 22.7483766,7.1041439 C22.7235263,7.09002269 22.698676,7.07943179 22.6738258,7.06884088 C22.6489755,7.05824998 22.6205751,7.04765907 22.5957248,7.04059847 C22.5708745,7.03353787 22.5424742,7.02647726 22.5140739,7.01941666 C22.4856735,7.01588636 22.4608233,7.00882575 22.4324229,7.00529545 C22.3756223,6.99823485 22.3223716,6.99823485 22.265571,7.00529545 C22.2371706,7.00882575 22.2087703,7.01235606 22.18392,7.01941666 C22.1555197,7.02294696 22.1306694,7.03353787 22.102269,7.04059847 C22.0738687,7.04765907 22.0490184,7.05824998 22.0241681,7.06884088 C21.9993178,7.07943179 21.9744675,7.09002269 21.9496173,7.1041439 C21.924767,7.11826511 21.8999167,7.13238632 21.8786164,7.14650752 C21.8573162,7.16062873 21.8324659,7.17828024 21.8111656,7.19593175 C21.7898654,7.21358326 21.7685651,7.23123477 21.7472649,7.25241658 C21.7295147,7.27006808 21.7082144,7.29124989 21.6904642,7.31596201 C21.672714,7.34067412 21.6549638,7.35832563 21.6407636,7.38303774 C21.6265635,7.40421955 21.6123633,7.42893166 21.5981631,7.45364378 C21.583963,7.47835589 21.5733128,7.503068 21.5626627,7.52778011 C21.5520126,7.55249222 21.5413625,7.58073464 21.5342624,7.60544675 C21.5271623,7.63368917 21.5200622,7.65840128 21.5129621,7.68664369 C21.505862,7.71488611 21.502312,7.73959822 21.498762,7.76784063 C21.4952119,7.79608305 21.4952119,7.82432546 21.4952119,7.85256787 C21.4952119,7.88081029 21.4952119,7.9090527 21.498762,7.93729512 C21.498762,7.96553753 21.502312,7.99377994 21.5094121,8.01849206 L21.5094121,8.01849206 Z M24.4097961,8.01849206 C24.4133462,8.04673447 24.4204463,8.07144658 24.4310964,8.099689 C24.4381965,8.12440111 24.4488466,8.15264352 24.4594967,8.17735564 C24.4701468,8.20206775 24.480797,8.22677986 24.4949971,8.25149197 C24.5091973,8.27620409 24.5233975,8.3009162 24.5375976,8.32209801 C24.5517978,8.34681012 24.569548,8.36799193 24.5872982,8.38917374 C24.6050484,8.41035555 24.6227986,8.43153736 24.6440989,8.45271917 C24.6653991,8.47390098 24.6831493,8.49155249 24.7079996,8.509204 C24.7292999,8.52685551 24.7506001,8.54450702 24.7754504,8.55862823 C24.8003007,8.57274943 24.821601,8.58687064 24.8464513,8.60099185 C24.8713015,8.61511305 24.8961518,8.62570396 24.9210021,8.63629486 C24.9458524,8.64688577 24.9742528,8.65747667 24.999103,8.66453728 C25.0239533,8.67159788 25.0523537,8.67865849 25.080754,8.68571909 C25.1091543,8.68924939 25.1375547,8.69630999 25.162405,8.6998403 C25.1908053,8.7033706 25.2192056,8.7033706 25.247606,8.7033706 C25.2760063,8.7033706 25.3044066,8.7033706 25.332807,8.6998403 C25.3612073,8.69630999 25.3896076,8.69277969 25.4144579,8.68571909 C25.4428583,8.68218879 25.4677085,8.67159788 25.4961089,8.66453728 C25.5245092,8.65747667 25.5493595,8.64688577 25.5742098,8.63629486 C25.5990601,8.62570396 25.6239104,8.61511305 25.6487607,8.60099185 C25.673611,8.58687064 25.6984613,8.57274943 25.7197615,8.55862823 C25.7446118,8.54450702 25.765912,8.52685551 25.7872123,8.509204 C25.8085125,8.49155249 25.8298128,8.47390098 25.851113,8.45271917 C25.8724133,8.43506766 25.8901635,8.41388585 25.9079137,8.38917374 C25.9256639,8.36799193 25.9434141,8.34681012 25.9576143,8.32209801 C25.9718145,8.3009162 25.9860146,8.27620409 26.0002148,8.25149197 C26.014415,8.22677986 26.0250651,8.20206775 26.0357152,8.17735564 C26.0463653,8.15264352 26.0570155,8.12440111 26.0641155,8.099689 C26.0712156,8.07144658 26.0783157,8.04673447 26.0854158,8.01849206 C26.0925159,7.99024964 26.0960659,7.96200723 26.099616,7.93729512 C26.103166,7.9090527 26.103166,7.88081029 26.103166,7.85256787 C26.103166,7.82432546 26.103166,7.79608305 26.099616,7.76784063 C26.0960659,7.73959822 26.0925159,7.7113558 26.0854158,7.68664369 C26.0783157,7.65840128 26.0747657,7.63368917 26.0641155,7.60544675 C26.0570155,7.58073464 26.0463653,7.55249222 26.0357152,7.52778011 C26.0250651,7.503068 26.014415,7.47835589 26.0002148,7.45364378 C25.9860146,7.42893166 25.9718145,7.40421955 25.9576143,7.38303774 C25.9434141,7.35832563 25.9256639,7.33714382 25.9079137,7.31596201 C25.8901635,7.2947802 25.8724133,7.27359839 25.851113,7.25241658 C25.8298128,7.23476507 25.8120626,7.21358326 25.7872123,7.19593175 C25.765912,7.17828024 25.7446118,7.16062873 25.7197615,7.14650752 C25.6984613,7.13238632 25.673611,7.11826511 25.6487607,7.1041439 C25.6239104,7.09002269 25.5990601,7.07943179 25.5742098,7.06884088 C25.5493595,7.05824998 25.5209592,7.04765907 25.4961089,7.04059847 C25.4712586,7.03353787 25.4428583,7.02647726 25.4144579,7.01941666 C25.3860576,7.01588636 25.3612073,7.00882575 25.332807,7.00529545 C25.2760063,6.99823485 25.2227557,6.99823485 25.165955,7.00529545 C25.1375547,7.00882575 25.1091543,7.01235606 25.084304,7.01941666 C25.0559037,7.02294696 25.0310534,7.03353787 25.0026531,7.04059847 C24.9742528,7.04765907 24.9494025,7.05824998 24.9245522,7.06884088 C24.8997019,7.07943179 24.8748516,7.09002269 24.8500013,7.1041439 C24.825151,7.11826511 24.8003007,7.13238632 24.7790005,7.14650752 C24.7577002,7.16062873 24.7328499,7.17828024 24.7115497,7.19593175 C24.6902494,7.21358326 24.6689492,7.23123477 24.6476489,7.25241658 C24.6298987,7.27006808 24.6085985,7.29124989 24.5908483,7.31596201 C24.573098,7.34067412 24.5553478,7.35832563 24.5411477,7.38303774 C24.5269475,7.40421955 24.5127473,7.42893166 24.4985472,7.45364378 C24.484347,7.47835589 24.4736969,7.503068 24.4630468,7.52778011 C24.4523966,7.55249222 24.4417465,7.58073464 24.4346464,7.60544675 C24.4275463,7.63368917 24.4204463,7.65840128 24.4133462,7.68664369 C24.4062461,7.71488611 24.402696,7.73959822 24.399146,7.76784063 C24.395596,7.79608305 24.395596,7.82432546 24.395596,7.85256787 C24.395596,7.88081029 24.395596,7.9090527 24.399146,7.93729512 C24.399146,7.96553753 24.402696,7.99377994 24.4097961,8.01849206 L24.4097961,8.01849206 Z M27.3066301,8.01849206 C27.3101802,8.04673447 27.3172803,8.07144658 27.3279304,8.099689 C27.3350305,8.12440111 27.3456806,8.15264352 27.3563307,8.17735564 C27.3669808,8.20206775 27.377631,8.22677986 27.3918311,8.25149197 C27.4060313,8.27620409 27.4202315,8.3009162 27.4344316,8.32209801 C27.4486318,8.34681012 27.466382,8.36799193 27.4841322,8.38917374 C27.5018824,8.41035555 27.5196326,8.43153736 27.5409329,8.45271917 C27.5622331,8.47390098 27.5799833,8.49155249 27.6048336,8.509204 C27.6261339,8.52685551 27.6474341,8.54450702 27.6722844,8.55862823 C27.6971347,8.57274943 27.718435,8.58687064 27.7432853,8.60099185 C27.7681355,8.61511305 27.7929858,8.62570396 27.8178361,8.63629486 C27.8426864,8.64688577 27.8710868,8.65747667 27.895937,8.66453728 C27.9207873,8.67159788 27.9491877,8.67865849 27.977588,8.68571909 C28.0059883,8.68924939 28.0343887,8.69630999 28.059239,8.6998403 C28.0876393,8.7033706 28.1160396,8.7033706 28.14444,8.7033706 C28.1728403,8.7033706 28.2012406,8.7033706 28.229641,8.6998403 C28.2580413,8.69630999 28.2864416,8.69277969 28.3112919,8.68571909 C28.3396923,8.68218879 28.3645425,8.67159788 28.3929429,8.66453728 C28.4213432,8.65747667 28.4461935,8.64688577 28.4710438,8.63629486 C28.4958941,8.62570396 28.5207444,8.61511305 28.5455947,8.60099185 C28.570445,8.58687064 28.5952953,8.57274943 28.6165955,8.55862823 C28.6414458,8.54450702 28.662746,8.52685551 28.6840463,8.509204 C28.7053465,8.49155249 28.7266468,8.47390098 28.747947,8.45271917 C28.7692473,8.43506766 28.7869975,8.41388585 28.8047477,8.38917374 C28.8224979,8.36799193 28.8402481,8.34681012 28.8544483,8.32209801 C28.8686485,8.3009162 28.8828486,8.27620409 28.8970488,8.25149197 C28.911249,8.22677986 28.9218991,8.20206775 28.9325492,8.17735564 C28.9431993,8.15264352 28.9538495,8.12440111 28.9609495,8.099689 C28.9680496,8.07144658 28.9751497,8.04673447 28.9822498,8.01849206 C28.9893499,7.99024964 28.9928999,7.96200723 28.99645,7.93729512 C29,7.9090527 29,7.88081029 29,7.85256787 C29,7.82432546 29,7.79608305 28.99645,7.76784063 C28.9928999,7.73959822 28.9893499,7.7113558 28.9822498,7.68664369 C28.9751497,7.65840128 28.9715997,7.63368917 28.9609495,7.60544675 C28.9538495,7.58073464 28.9431993,7.55249222 28.9325492,7.52778011 C28.9218991,7.503068 28.911249,7.47835589 28.8970488,7.45364378 C28.8828486,7.42893166 28.8686485,7.40421955 28.8544483,7.38303774 C28.8402481,7.35832563 28.8224979,7.33714382 28.8047477,7.31596201 C28.7869975,7.2947802 28.7692473,7.27359839 28.747947,7.25241658 C28.7266468,7.23476507 28.7088966,7.21358326 28.6840463,7.19593175 C28.662746,7.17828024 28.6414458,7.16062873 28.6165955,7.14650752 C28.5952953,7.13238632 28.570445,7.11826511 28.5455947,7.1041439 C28.5207444,7.09002269 28.4958941,7.07943179 28.4710438,7.06884088 C28.4461935,7.05824998 28.4177932,7.04765907 28.3929429,7.04059847 C28.3680926,7.03353787 28.3396923,7.02647726 28.3112919,7.01941666 C28.2828916,7.01588636 28.2580413,7.00882575 28.229641,7.00529545 C28.1728403,6.99823485 28.1195897,6.99823485 28.062789,7.00529545 C28.0343887,7.00882575 28.0059883,7.01235606 27.981138,7.01941666 C27.9527377,7.02294696 27.9278874,7.03353787 27.8994871,7.04059847 C27.8710868,7.04765907 27.8462365,7.05824998 27.8213862,7.06884088 C27.7965359,7.07943179 27.7716856,7.09002269 27.7468353,7.1041439 C27.721985,7.11826511 27.6971347,7.13238632 27.6758345,7.14650752 C27.6545342,7.16062873 27.6296839,7.17828024 27.6083837,7.19593175 C27.5870834,7.21358326 27.5657832,7.23123477 27.5444829,7.25241658 C27.5267327,7.27006808 27.5054325,7.29124989 27.4876823,7.31596201 C27.469932,7.34067412 27.4521818,7.35832563 27.4379817,7.38303774 C27.4237815,7.40421955 27.4095813,7.42893166 27.3953812,7.45364378 C27.381181,7.47835589 27.3705309,7.503068 27.3598808,7.52778011 C27.3492306,7.55249222 27.3385805,7.58073464 27.3314804,7.60544675 C27.3243803,7.63368917 27.3172803,7.65840128 27.3101802,7.68664369 C27.3030801,7.71488611 27.29953,7.73959822 27.29598,7.76784063 C27.29243,7.79608305 27.29243,7.82432546 27.29243,7.85256787 C27.29243,7.88081029 27.29243,7.9090527 27.29598,7.93729512 C27.29953,7.96553753 27.3030801,7.99377994 27.3066301,8.01849206 L27.3066301,8.01849206 Z M11.4769943,17.9315794 C11.1574906,17.5891401 10.6178843,17.5679583 10.2735302,17.8892158 C9.92917618,18.2104732 9.90787593,18.7435488 10.2309297,19.0859881 L13.9336232,23.0434563 L10.2628801,26.5419854 C9.9220761,26.8667731 9.91142597,27.403379 10.2380298,27.7387577 C10.4048818,27.9117425 10.6285344,28 10.852187,28 C11.0651895,28 11.278192,27.9223334 11.4414939,27.7634698 L15.7157441,23.6895016 C16.0529981,23.3682441 16.0671982,22.8386988 15.7512445,22.4997899 L11.4769943,17.9315794 Z" id="形状" fill="#FFFFFF"></path>
        </g>
    </g>
</svg>