<?xml version="1.0" encoding="UTF-8"?>
<svg width="48px" height="48px" viewBox="0 0 48 48" version="1.1" xmlns="http://www.w3.org/2000/svg" xmlns:xlink="http://www.w3.org/1999/xlink">
    <!-- Generator: Sketch 64 (93537) - https://sketch.com -->
    <title>画板</title>
    <desc>Created with Sketch.</desc>
    <defs>
        <path d="M19,0 C8.46363636,0 0,8.46363636 0,19 C0,29.5363636 8.46363636,38 19,38 C29.5363636,38 38,29.5363636 38,19 C38,8.46363636 29.5363636,0 19,0 Z M19,36.2318182 C9.5,36.2318182 1.72727273,28.4580682 1.72727273,18.9568182 C1.72727273,9.45556818 9.5,1.68181818 19,1.68181818 C28.5,1.68181818 36.2727273,9.45556818 36.2727273,18.9568182 C36.2727273,28.4580682 28.5,36.2318182 19,36.2318182 Z M15.2,9.58636364 C14.8545455,9.41818182 14.5090909,9.41818182 14.3363636,9.58636364 C13.9909091,9.75454545 13.8181818,10.0909091 13.8181818,10.4272727 L13.8181818,26.7409091 C13.8181818,27.0772727 13.9909091,27.4136364 14.3363636,27.4136364 C14.5090909,27.4136364 14.6818182,27.5818182 14.6818182,27.5818182 C14.8545455,27.5818182 15.0272727,27.5818182 15.2,27.4136364 L28.1545455,19.3409091 C28.3272727,19.1727273 28.5,19.0045455 28.5,18.6681818 C28.5,18.3318182 28.3272727,18.1636364 28.1545455,17.9954545 L15.2,9.58636364 Z M15.5454545,25.0590909 L15.5454545,11.9409091 L26.0818182,18.5 L15.5454545,25.0590909 Z" id="path-1"></path>
    </defs>
    <g id="画板" stroke="none" stroke-width="1" fill="none" fill-rule="evenodd">
        <g id="编组-5">
            <circle id="Oval-2" fill="#008BFF" cx="24" cy="24" r="24"></circle>
            <g id="px-nav:play" transform="translate(5.000000, 5.000000)">
                <mask id="mask-2" fill="white">
                    <use xlink:href="#path-1"></use>
                </mask>
                <use id="Mask" fill="#FFFFFF" fill-rule="nonzero" xlink:href="#path-1"></use>
            </g>
        </g>
    </g>
</svg>