<?xml version="1.0" encoding="UTF-8"?>
<svg width="48px" height="48px" viewBox="0 0 48 48" version="1.1" xmlns="http://www.w3.org/2000/svg" xmlns:xlink="http://www.w3.org/1999/xlink">
    <!-- Generator: Sketch 64 (93537) - https://sketch.com -->
    <title>画板</title>
    <desc>Created with Sketch.</desc>
    <defs>
        <path d="M31.790625,25.6347826 L32.765625,26.3652174 L23.503125,39.7565217 C23.38125,39.8782609 23.259375,40 23.015625,40 L18.140625,40 C17.896875,40 17.775,39.8782609 17.653125,39.7565217 C17.53125,39.6347826 17.53125,39.3913043 17.53125,39.2695652 L21.1875,25.8782609 L22.40625,26.2434783 L18.99375,38.7826087 L22.771875,38.7826087 L31.790625,25.6347826 Z M48,26 L48,28.4347826 C48,28.8 47.75625,29.0434783 47.390625,29.0434783 L33.375,29.0434783 L33.375,27.826087 L46.78125,27.826087 L46.78125,26 C46.78125,25.7565217 46.78125,25.6347826 46.659375,25.3913043 L41.540625,25.3913043 C40.321875,25.3913043 39.346875,24.4173913 39.346875,23.2 L39.346875,21.7391304 L14.484375,21.7391304 C14.240625,21.7391304 13.996875,21.6173913 13.996875,21.373913 L11.68125,16.8695652 L10.21875,16.8695652 L10.21875,23.5652174 C10.21875,25.8782609 12.16875,27.826087 14.484375,27.826087 L18.75,27.826087 L18.75,29.0434783 L14.484375,29.0434783 C11.4375,29.0434783 9,26.6086957 9,23.5652174 L9,16.2608696 C9,15.8956522 9.24375,15.6521739 9.609375,15.6521739 L12.046875,15.6521739 C12.290625,15.6521739 12.534375,15.773913 12.534375,16.0173913 L14.85,20.5217391 L20.821875,20.5217391 L17.53125,12.8521739 C17.53125,12.6086957 17.53125,12.4869565 17.653125,12.2434783 C17.775,12.1217391 17.896875,12 18.140625,12 L23.015625,12 C23.1375,12 23.38125,12.1217391 23.503125,12.2434783 L30.69375,20.5217391 L42.6375,20.5217391 C45.5625,20.5217391 48,22.9565217 48,26 Z M22.1625,20.5217391 L28.9875,20.5217391 L22.771875,13.2173913 L19.115625,13.2173913 L22.1625,20.5217391 Z M46.415625,24.173913 C45.684375,22.7130435 44.221875,21.7391304 42.515625,21.7391304 L40.6875,21.7391304 L40.6875,23.2 C40.6875,23.8086957 41.175,24.173913 41.6625,24.173913 L46.415625,24.173913 Z" id="path-1"></path>
    </defs>
    <g id="画板" stroke="none" stroke-width="1" fill="none" fill-rule="evenodd">
        <g id="编组-4" transform="translate(-4.000000, -1.000000)">
            <circle id="Oval-2" fill="#008BFF" cx="28" cy="25" r="24"></circle>
            <g id="px-obj:airplane">
                <rect id="Container" x="0" y="0" width="58" height="53"></rect>
                <mask id="mask-2" fill="white">
                    <use xlink:href="#path-1"></use>
                </mask>
                <use id="Mask" fill="#FFFFFF" fill-rule="nonzero" xlink:href="#path-1"></use>
            </g>
        </g>
    </g>
</svg>