<?xml version="1.0" encoding="UTF-8"?>
<svg width="48px" height="48px" viewBox="0 0 48 48" version="1.1" xmlns="http://www.w3.org/2000/svg" xmlns:xlink="http://www.w3.org/1999/xlink">
    <!-- Generator: Sketch 64 (93537) - https://sketch.com -->
    <title>画板</title>
    <desc>Created with Sketch.</desc>
    <defs>
        <path d="M9.93103448,34.09375 L9,34.09375 L9,6.484375 C9,6.19375 9.1862069,6 9.46551724,6 L32.7413793,6 C33.0206897,6 33.2068966,6.19375 33.2068966,6.484375 L33.2068966,29.25 L32.2758621,29.25 L32.2758621,6.96875 L9.93103448,6.96875 L9.93103448,34.09375 Z M36,34.09375 L36,31.671875 C36,31.38125 35.8137931,31.1875 35.5344828,31.1875 L14.1206897,31.1875 C13.8413793,31.1875 13.6551724,31.38125 13.6551724,31.671875 L13.6551724,34.09375 C13.6551724,35.159375 12.8172414,36.03125 11.7931034,36.03125 C10.7689655,36.03125 9.93103448,35.159375 9.93103448,34.09375 L9,34.09375 C9,35.740625 10.2103448,37 11.7931034,37 L33.2068966,37 C34.7896552,37 36,35.740625 36,34.09375 Z M14.5862069,34.09375 L14.5862069,32.15625 L35.0689655,32.15625 L35.0689655,34.09375 C35.0689655,35.159375 34.2310345,36.03125 33.2068966,36.03125 L13.8413793,36.03125 C14.3068966,35.546875 14.5862069,34.86875 14.5862069,34.09375 Z M26.6896552,12.78125 L13.6551724,12.78125 L13.6551724,13.75 L26.6896552,13.75 L26.6896552,12.78125 Z M28.5517241,17.625 L13.6551724,17.625 L13.6551724,18.59375 L28.5517241,18.59375 L28.5517241,17.625 Z M26.6896552,22.46875 L13.6551724,22.46875 L13.6551724,23.4375 L26.6896552,23.4375 L26.6896552,22.46875 Z" id="path-1"></path>
    </defs>
    <g id="画板" stroke="none" stroke-width="1" fill="none" fill-rule="evenodd">
        <g id="编组-2">
            <circle id="Oval-2" fill="#008BFF" cx="24" cy="24" r="24"></circle>
            <g id="px-com:message" transform="translate(2.000000, 3.000000)">
                <rect id="Container" x="0" y="0" width="46" height="42"></rect>
                <mask id="mask-2" fill="white">
                    <use xlink:href="#path-1"></use>
                </mask>
                <use id="Mask" fill="#FFFFFF" fill-rule="nonzero" xlink:href="#path-1"></use>
            </g>
        </g>
    </g>
</svg>