<?xml version="1.0" encoding="UTF-8"?>
<svg width="48px" height="48px" viewBox="0 0 48 48" version="1.1" xmlns="http://www.w3.org/2000/svg" xmlns:xlink="http://www.w3.org/1999/xlink">
    <!-- Generator: Sketch 64 (93537) - https://sketch.com -->
    <title>画板</title>
    <desc>Created with Sketch.</desc>
    <defs>
        <path d="M37,9.5 L37,38.5 C37,38.8 36.8,39 36.5,39 L10.5,39 C10.2,39 10,38.8 10,38.5 L10,9.5 C10,9.2 10.2,9 10.5,9 L17,9 L17,10 L11,10 L11,38 L36,38 L36,10 L31,10 L31,9 L36.5,9 C36.8,9 37,9.2 37,9.5 Z M19,12.5 L19,7.5 C19,7.2 19.2,7 19.5,7 L28.5,7 C28.8,7 29,7.2 29,7.5 L29,12.5 C29,12.8 28.8,13 28.5,13 L19.5,13 C19.2,13 19,12.8 19,12.5 Z M20,12 L28,12 L28,8 L20,8 L20,12 Z M32,19 L21,19 L21,20 L32,20 L32,19 Z M15.5,19 L18.5,19 C18.8,19 19,19.2 19,19.5 L19,22.5 C19,22.8 18.8,23 18.5,23 L15.5,23 C15.2,23 15,22.8 15,22.5 L15,19.5 C15,19.2 15.2,19 15.5,19 Z M16,22 L18,22 L18,20 L16,20 L16,22 Z M21,22 L21,23 L30,23 L30,22 L21,22 Z M32,28 L21,28 L21,29 L32,29 L32,28 Z M19,28.5 L19,31.5 C19,31.8 18.8,32 18.5,32 L15.5,32 C15.2,32 15,31.8 15,31.5 L15,28.5 C15,28.2 15.2,28 15.5,28 L18.5,28 C18.8,28 19,28.2 19,28.5 Z M18,29 L16,29 L16,31 L18,31 L18,29 Z M21,32 L30,32 L30,31 L21,31 L21,32 Z" id="path-1"></path>
    </defs>
    <g id="画板" stroke="none" stroke-width="1" fill="none" fill-rule="evenodd">
        <g id="编组-6">
            <circle id="Oval-2" fill="#008BFF" cx="24" cy="24" r="24"></circle>
            <g id="px-fea:log" transform="translate(0.000000, 1.000000)">
                <rect id="Container" x="0" y="0" width="48" height="44"></rect>
                <mask id="mask-2" fill="white">
                    <use xlink:href="#path-1"></use>
                </mask>
                <use id="Mask" fill="#FFFFFF" fill-rule="nonzero" xlink:href="#path-1"></use>
            </g>
        </g>
    </g>
</svg>