<?xml version="1.0" encoding="UTF-8"?>
<svg width="48px" height="48px" viewBox="0 0 48 48" version="1.1" xmlns="http://www.w3.org/2000/svg" xmlns:xlink="http://www.w3.org/1999/xlink">
    <!-- Generator: Sketch 64 (93537) - https://sketch.com -->
    <title>画板</title>
    <desc>Created with Sketch.</desc>
    <defs>
        <path d="M40,20.1191223 L40,24.7836991 C40,25.0752351 39.799373,25.2695925 39.5987461,25.2695925 L35.8871473,25.7554859 C35.5862069,26.630094 35.2852665,27.5047022 34.7836991,28.3793103 L37.0909091,31.2946708 C37.2915361,31.4890282 37.1912226,31.7805643 37.0909091,31.9749216 L33.5799373,35.0846395 C33.3793103,35.2789969 33.0783699,35.2789969 32.8777429,35.0846395 L29.6677116,32.6551724 L30.2695925,31.8777429 L33.1786834,34.015674 L35.9874608,31.2946708 L33.7805643,28.476489 C33.6802508,28.2821317 33.6802508,28.0877743 33.7805643,27.8934169 C34.3824451,27.0188088 34.7836991,26.0470219 35.0846395,24.9780564 C35.184953,24.7836991 35.2852665,24.6865204 35.4858934,24.5893417 L39.0971787,24.200627 L39.0971787,20.4106583 L35.4858934,20.0219436 C35.2852665,20.0219436 35.0846395,19.8275862 35.0846395,19.6332288 C34.7836991,18.5642633 34.3824451,17.5924765 33.7805643,16.7178683 C33.6802508,16.523511 33.6802508,16.3291536 33.7805643,16.1347962 L35.9874608,13.5109718 L33.1786834,10.7899687 L30.2695925,12.9278997 C30.0689655,13.0250784 29.8683386,13.0250784 29.6677116,12.9278997 C28.7648903,12.3448276 27.7617555,11.9561129 26.6583072,11.6645768 C26.4576803,11.5673981 26.3573668,11.4702194 26.2570533,11.2758621 L25.8557994,7.87460815 L21.9435737,7.87460815 L21.5423197,11.3730408 C21.5423197,11.5673981 21.3416928,11.7617555 21.1410658,11.7617555 C20.0376176,12.0532915 19.0344828,12.4420063 18.1316614,13.0250784 C17.9310345,13.1222571 17.7304075,13.1222571 17.5297806,13.0250784 L14.7210031,10.7899687 L11.9122257,13.5109718 L14.1191223,16.3291536 C14.2194357,16.523511 14.2194357,16.7178683 14.1191223,16.9122257 C13.5172414,17.7868339 13.1159875,18.7586207 12.815047,19.8275862 C12.7147335,20.0219436 12.6144201,20.1191223 12.4137931,20.2163009 L8.90282132,20.6050157 L8.90282132,24.3949843 L12.5141066,24.7836991 C12.7147335,24.7836991 12.9153605,24.9780564 12.9153605,25.1724138 C13.2163009,26.2413793 13.6175549,27.2131661 14.2194357,28.0877743 C14.3197492,28.2821317 14.3197492,28.476489 14.2194357,28.6708464 L11.9122257,31.3918495 L14.7210031,34.1128527 L17.630094,31.9749216 L18.2319749,32.7523511 L14.9216301,35.0846395 C14.8213166,35.1818182 14.7210031,35.1818182 14.6206897,35.1818182 C14.5203762,35.1818182 14.3197492,35.1818182 14.2194357,35.0846395 L10.9090909,31.7805643 C10.7084639,31.5862069 10.7084639,31.2946708 10.9090909,31.1003135 L13.2163009,28.184953 C12.7147335,27.4075235 12.4137931,26.5329154 12.1128527,25.5611285 L8.40125392,25.0752351 C8.10031348,25.0752351 8,24.8808777 8,24.5893417 L8,19.9247649 C8,19.6332288 8.20062696,19.4388715 8.40125392,19.4388715 L12.1128527,18.9529781 C12.4137931,18.0783699 12.7147335,17.2037618 13.2163009,16.3291536 L10.9090909,13.7053292 C10.7084639,13.5109718 10.7084639,13.3166144 10.9090909,13.1222571 L14.3197492,9.81818182 C14.5203762,9.62382445 14.7210031,9.62382445 14.9216301,9.81818182 L17.9310345,12.0532915 C18.7335423,11.5673981 19.6363636,11.2758621 20.6394984,10.984326 L21.1410658,7.38871473 C21.1410658,7.09717868 21.3416928,7 21.6426332,7 L26.4576803,7 C26.7586207,7 26.9592476,7.19435737 26.9592476,7.38871473 L27.460815,10.984326 C28.3636364,11.2758621 29.2664577,11.5673981 30.169279,12.0532915 L32.9780564,9.81818182 C33.1786834,9.62382445 33.4796238,9.72100313 33.6802508,9.81818182 L36.9905956,13.1222571 C37.1912226,13.3166144 37.1912226,13.6081505 36.9905956,13.8025078 L34.6833856,16.7178683 C35.184953,17.4952978 35.4858934,18.369906 35.7868339,19.3416928 L39.4984326,19.8275862 C39.799373,19.6332288 40,19.9247649 40,20.1191223 Z M30.9717868,22.4514107 C30.9717868,24.6865204 29.8683386,26.7272727 27.9623824,27.9905956 L27.9623824,37.5141066 C27.9623824,37.8056426 27.7617555,38 27.460815,38 L20.4388715,38 C20.137931,38 19.9373041,37.8056426 19.9373041,37.5141066 L19.9373041,27.9905956 C18.031348,26.7272727 16.9278997,24.6865204 16.9278997,22.4514107 C16.9278997,19.7304075 18.6332288,17.2037618 21.2413793,16.1347962 C21.4420063,16.0376176 21.5423197,16.1347962 21.7429467,16.1347962 C21.8432602,16.3291536 21.9435737,16.4263323 21.9435737,16.6206897 L21.9435737,22.4514107 L25.9561129,22.4514107 L25.9561129,16.6206897 C25.9561129,16.4263323 26.0564263,16.3291536 26.1567398,16.2319749 C26.2570533,16.1347962 26.4576803,16.1347962 26.6583072,16.2319749 C29.2664577,17.2037618 30.9717868,19.7304075 30.9717868,22.4514107 Z M29.968652,22.4514107 C29.968652,20.3134796 28.7648903,18.4670846 26.9592476,17.3981191 L26.9592476,22.9373041 C26.9592476,23.2288401 26.7586207,23.4231975 26.4576803,23.4231975 L21.4420063,23.4231975 C21.1410658,23.4231975 20.9404389,23.2288401 20.9404389,22.9373041 L20.9404389,17.3981191 C19.1347962,18.4670846 17.9310345,20.3134796 17.9310345,22.4514107 C17.9310345,24.3949843 18.9341693,26.2413793 20.7398119,27.3103448 C20.8401254,27.4075235 20.9404389,27.6018809 20.9404389,27.6990596 L20.9404389,37.0282132 L26.9592476,37.0282132 L26.9592476,27.7962382 C26.9592476,27.6018809 27.0595611,27.5047022 27.1598746,27.4075235 C28.9655172,26.2413793 29.968652,24.3949843 29.968652,22.4514107 Z" id="path-1"></path>
    </defs>
    <g id="画板" stroke="none" stroke-width="1" fill="none" fill-rule="evenodd">
        <circle id="Oval-2" fill="#008BFF" cx="24" cy="24" r="24"></circle>
        <g id="px-fea:administration" transform="translate(0.000000, 2.000000)">
            <rect id="Container" x="0" y="0" width="48" height="43"></rect>
            <mask id="mask-2" fill="white">
                <use xlink:href="#path-1"></use>
            </mask>
            <use id="Mask" fill="#FFFFFF" fill-rule="nonzero" xlink:href="#path-1"></use>
        </g>
    </g>
</svg>