<?xml version="1.0" encoding="UTF-8"?>
<svg width="48px" height="48px" viewBox="0 0 48 48" version="1.1" xmlns="http://www.w3.org/2000/svg" xmlns:xlink="http://www.w3.org/1999/xlink">
    <!-- Generator: Sketch 64 (93537) - https://sketch.com -->
    <title>画板</title>
    <desc>Created with Sketch.</desc>
    <defs>
        <path d="M8.03125,22 C8.03125,25.71875 9.26875,29.33125 11.5375,32.09375 L10.7125,32.73125 C8.340625,29.75625 7,25.93125 7,22 C7,12.65 14.425,5 23.5,5 C27.315625,5 31.028125,6.38125 34.01875,8.825 L33.4,9.675 C30.615625,7.3375 27.109375,6.0625 23.5,6.0625 C14.940625,6.0625 8.03125,13.18125 8.03125,22 Z M36.2875,11.1625 L35.4625,11.8 C37.73125,14.66875 38.96875,18.28125 38.96875,22 C38.96875,30.81875 32.059375,37.9375 23.5,37.9375 C19.890625,37.9375 16.384375,36.6625 13.703125,34.325 L13.084375,35.175 C15.971875,37.61875 19.684375,39 23.5,39 C32.575,39 40,31.35 40,22 C40,18.06875 38.659375,14.24375 36.2875,11.1625 Z M18.859375,20.9375 C19.16875,20.9375 19.375,21.15 19.375,21.46875 L19.375,28.90625 C19.375,29.225 19.16875,29.4375 18.859375,29.4375 L15.765625,29.4375 C15.45625,29.4375 15.25,29.225 15.25,28.90625 L15.25,21.46875 C15.25,21.15 15.45625,20.9375 15.765625,20.9375 L18.859375,20.9375 Z M18.34375,22 L16.28125,22 L16.28125,28.375 L18.34375,28.375 L18.34375,22 Z M25.046875,13.5 C25.35625,13.5 25.5625,13.7125 25.5625,14.03125 L25.5625,28.90625 C25.5625,29.225 25.35625,29.4375 25.046875,29.4375 L21.953125,29.4375 C21.64375,29.4375 21.4375,29.225 21.4375,28.90625 L21.4375,14.03125 C21.4375,13.7125 21.64375,13.5 21.953125,13.5 L25.046875,13.5 Z M24.53125,14.5625 L22.46875,14.5625 L22.46875,28.375 L24.53125,28.375 L24.53125,14.5625 Z M31.234375,16.6875 C31.54375,16.6875 31.75,16.9 31.75,17.21875 L31.75,28.90625 C31.75,29.225 31.54375,29.4375 31.234375,29.4375 L28.140625,29.4375 C27.83125,29.4375 27.625,29.225 27.625,28.90625 L27.625,17.21875 C27.625,16.9 27.83125,16.6875 28.140625,16.6875 L31.234375,16.6875 Z M30.71875,17.75 L28.65625,17.75 L28.65625,28.375 L30.71875,28.375 L30.71875,17.75 Z" id="path-1"></path>
    </defs>
    <g id="画板" stroke="none" stroke-width="1" fill="none" fill-rule="evenodd">
        <g id="编组-8">
            <circle id="Oval-2" fill="#008BFF" cx="24" cy="24" r="24"></circle>
            <g id="px-fea:kpi-general" transform="translate(0.000000, 2.000000)">
                <rect id="Container" x="0" y="0" width="48" height="44"></rect>
                <mask id="mask-2" fill="white">
                    <use xlink:href="#path-1"></use>
                </mask>
                <use id="Mask" fill="#FFFFFF" fill-rule="nonzero" xlink:href="#path-1"></use>
            </g>
        </g>
    </g>
</svg>